# File created by Blade
# Date/Time:  Wed Apr 08 16:19:59 2015
# Frame Rate: 120.000 fps
#------------------------------------------------------
:FULLY-SPECIFIED
:DEGREES
3284
root 32.376205 30.382813 -3.290747 349.019068 -73.612968 -693.509258
Spine -8.755421 -10.213230 -3.284298
Head 2.071539 13.328852 2.767508
LeftShoulder -26.290809 45.424916 6.074074
LeftArm 48.795708 -41.116524 -94.613957
LeftForeArm 23.070511 -0.000000 97.666821
LeftHand -1.792660 -0.000000 10.758901
LeftHandThumb1 -26.253704 0.000000 33.147579
RightShoulder -10.173970 -6.292039 -22.671352
RightArm 4.384357 29.556654 67.629058
RightForeArm -23.206778 -0.000000 57.470664
RightHand 7.668611 -0.000000 -16.064574
RightHandThumb1 -24.326973 -0.000000 -32.862282
LeftUpLeg 3.392455 -8.893019 -9.985482
LeftLeg -0.829645 -0.000000 0.000000
LeftFoot -21.787171 15.353482 -18.265642
LeftToeBase -9.762527 -0.000000 0.000000
RightUpLeg -50.750085 -9.591119 -2.992859
RightLeg 36.486256 -0.000000 -0.000000
RightFoot -1.840994 -12.924566 7.357076
RightToeBase -5.704733 -0.000000 0.000000
3285
root 32.269883 30.352295 -3.294395 349.076949 -73.653437 -693.458597
Spine -8.706609 -9.999457 -3.361258
Head 1.509090 14.436680 2.635105
LeftShoulder -26.708044 45.882430 5.615906
LeftArm 47.566798 -39.239780 -94.117036
LeftForeArm 22.250763 -0.000000 97.340838
LeftHand -1.704189 0.000000 10.207170
LeftHandThumb1 -26.253704 0.000000 33.147579
RightShoulder -10.149577 -6.586341 -22.344803
RightArm 4.378198 28.719185 68.740991
RightForeArm -22.899232 -0.000000 56.745746
RightHand 7.934745 -0.000000 -16.043367
RightHandThumb1 -24.326973 -0.000000 -32.862282
LeftUpLeg 3.620417 -8.890629 -9.935209
LeftLeg -1.138110 -0.000000 0.000000
LeftFoot -21.732020 15.328796 -18.264237
LeftToeBase -9.821016 -0.000000 0.000000
RightUpLeg -50.873576 -8.825345 -3.733666
RightLeg 37.109191 -0.000000 -0.000000
RightFoot -2.192288 -12.505522 6.941827
RightToeBase -5.688860 -0.000000 0.000000
3286
root 32.158381 30.322109 -3.299358 349.217445 -73.667001 -693.515756
Spine -8.629495 -9.796286 -3.418110
Head 0.968072 15.541688 2.480331
LeftShoulder -27.047610 46.250565 5.232353
LeftArm 46.203009 -37.364854 -93.424983
LeftForeArm 21.164938 -0.000000 97.048881
LeftHand -1.733490 -0.000000 9.599879
LeftHandThumb1 -26.253704 0.000000 33.147579
RightShoulder -10.135578 -6.894204 -22.023506
RightArm 4.366989 27.775888 69.815823
RightForeArm -22.670305 -0.000000 56.072287
RightHand 8.307664 -0.000000 -16.302640
RightHandThumb1 -24.326973 -0.000000 -32.862282
LeftUpLeg 3.910734 -8.928011 -9.864932
LeftLeg -1.508363 -0.000000 0.000000
LeftFoot -21.627729 15.351748 -18.251381
LeftToeBase -9.880084 -0.000000 0.000000
RightUpLeg -50.962439 -8.088231 -4.452963
RightLeg 37.689294 -0.000000 -0.000000
RightFoot -2.495402 -12.111746 6.359118
RightToeBase -5.801118 -0.000000 0.000000
3287
root 32.037998 30.292616 -3.306389 349.519302 -73.642902 -693.745176
Spine -8.578798 -9.651805 -3.428148
Head 0.495822 16.674538 2.315127
LeftShoulder -27.347882 46.645062 4.864302
LeftArm 44.946340 -35.551793 -92.862047
LeftForeArm 19.942163 0.000000 96.802986
LeftHand -1.847539 -0.000000 8.637892
LeftHandThumb1 -26.253704 0.000000 33.147579
RightShoulder -10.056243 -7.179410 -21.706231
RightArm 4.281674 26.869565 70.843109
RightForeArm -22.728327 0.000000 55.606216
RightHand 8.310747 0.000000 -16.208564
RightHandThumb1 -24.326973 -0.000000 -32.862282
LeftUpLeg 4.250697 -9.006856 -9.750473
LeftLeg -1.934543 -0.000000 0.000000
LeftFoot -21.514277 15.372779 -18.270669
LeftToeBase -9.909637 -0.000000 0.000000
RightUpLeg -51.008860 -7.407822 -5.129720
RightLeg 38.217516 -0.000000 -0.000000
RightFoot -2.864250 -11.646205 5.799567
RightToeBase -5.819042 -0.000000 0.000000
3288
root 31.913304 30.263528 -3.313764 349.884371 -73.571577 -694.065398
Spine -8.509144 -9.571810 -3.431132
Head 0.061671 17.942769 2.150298
LeftShoulder -27.572090 46.957743 4.571902
LeftArm 43.685952 -33.769709 -92.371569
LeftForeArm 19.011024 0.000000 96.635706
LeftHand -2.582078 -0.000000 8.720849
LeftHandThumb1 -26.253704 0.000000 33.147579
RightShoulder -9.940951 -7.527867 -21.366129
RightArm 4.235750 25.875550 71.766017
RightForeArm -22.696186 0.000000 55.182566
RightHand 8.530616 0.000000 -16.065950
RightHandThumb1 -24.326973 -0.000000 -32.862282
LeftUpLeg 4.630596 -9.078636 -9.617224
LeftLeg -2.371171 -0.000000 0.000000
LeftFoot -21.326171 15.365756 -18.243359
LeftToeBase -10.153856 -0.000000 0.000000
RightUpLeg -51.021321 -6.787557 -5.777401
RightLeg 38.741937 -0.000000 -0.000000
RightFoot -3.230094 -11.179275 5.398581
RightToeBase -6.276103 -0.000000 0.000000
